<?xml version="1.0" encoding="utf-8"?>
<!-- Generator: Adobe Illustrator 24.1.1, SVG Export Plug-In . SVG Version: 6.00 Build 0)  -->
<svg version="1.1" id="Layer_1" xmlns="http://www.w3.org/2000/svg" xmlns:xlink="http://www.w3.org/1999/xlink" x="0px" y="0px"
	 viewBox="0 0 512 512" style="enable-background:new 0 0 512 512;" xml:space="preserve">
<style type="text/css">
	.st0{fill:#16A085;}
	.st1{fill:#ECF0F1;}
	.st2{fill:#BDC3C7;}
	.st3{fill:#1ABC9C;}
</style>
<g id="XMLID_1_">
	<path id="XMLID_3_" class="st0" d="M47,163.1v46.3v23.5v69.8v23.5v116v23.5c0,25.9,20.4,46.3,46.3,46.3h324.6
		c25.9,0,46.3-20.4,46.3-46.3v-23.5V325.4v-93.3v-69.8H47V163.1z"/>
	<path id="XMLID_4_" class="st1" d="M47,139.6v46.3v23.5v69.8v23.5v116v23.5c0,25.1,20.4,46.3,46.3,46.3h324.6
		c25.9,0,46.3-21.2,46.3-46.3v-23.5V301.9v-92.5v-69.8C464.2,139.6,47,139.6,47,139.6z"/>
	<path id="XMLID_5_" class="st2" d="M47,116.8v46.3v23.5v69v23.5v116v23.5c0,25.1,20.4,46.3,46.3,46.3h324.6
		c25.9,0,46.3-21.2,46.3-46.3v-23.5v-116v-93.3V116H47V116.8z"/>
	<path id="XMLID_6_" class="st1" d="M47,93.3v46.3v23.5v69v23.5v116v23.5c0,25.1,20.4,46.3,46.3,46.3h324.6
		c25.9,0,46.3-21.2,46.3-46.3v-23.5v-116v-92.5V93.3C464.2,93.3,47,93.3,47,93.3z"/>
	<path id="XMLID_7_" class="st0" d="M93.3,0.8C67.4,0.8,47,21.2,47,47v23.5v92.5v46.3v23.5v69.8v23.5v116v23.5
		c0,25.9,20.4,46.3,46.3,46.3h46.3v-23.5h-34.5c-18.8,0-34.5-15.7-34.5-34.5s15.7-34.5,34.5-34.5h289.3h23.5
		c25.9,0,46.3-20.4,46.3-46.3v-23.5V232.1v-92.5V69.8V46.3c0-25.9-20.4-46.3-46.3-46.3h-92.5H93.3V0.8z"/>
	<path id="XMLID_8_" class="st3" d="M163.1,0.8v417.1h23.5h208.6h23.5c25.9,0,46.3-20.4,46.3-46.3v-23.5v-116v-92.5V69.8V46.3
		C465,20.4,444.6,0,418.7,0h-93.3H185.8h-22.7V0.8z"/>
</g>
</svg>
